<?xml version="1.0" encoding="UTF-8"?>
<svg id="Capa_1" data-name="Capa 1" xmlns="http://www.w3.org/2000/svg" viewBox="0 0 763.34 189.78">
  <defs>
    <style>
      .cls-1 {
        fill: none;
      }

      .cls-2 {
        fill: #e5e5e5;
      }

      .cls-3 {
        fill: #fff;
      }
    </style>
  </defs>
  <path class="cls-3" d="M469.39,144.51l-.02,17.35c-.43.53-2.12.58-2.61.15l-3.4-9.68c-1.24,3.77-.32,6.6-.65,9.74-.94.21-1.49.19-2.57.1l.24-18.43c2.29-1.29,4.53,4.26,4.59,6.96.03,1.3.2,2.39,2.01,3.04l.09-9.91c.65-.08,1.73-.06,2.32.68Z"/>
  <path class="cls-3" d="M372.22,144.05l-.08,14.66c-.01,2.29-2.04,3.38-3.61,3.66-1.89.34-3.49-.63-4.81-2.54l-.15-15.81c.71-.16,1.47-.24,2.67-.01l.21,14.41c0,.79.91,1.12,1.27,1.25.37.13,1.65-.12,1.65-.96l.1-14.43c.48-.46,1.62-.67,2.75-.23Z"/>
  <path class="cls-3" d="M569.05,160.75c-2.23,2.83-6.64,1.96-8.05-1.02-.59-1.24-.29-2.43.45-2.73,2.2-.89,2,2.87,3.95,2.8,1.03-.04,1.74-.69,1.89-2.11.56-5.21-6.36-2.53-6.38-8.96-.01-3.2,1.81-5.09,4.52-5.13,2.44-.05,5.15,2.12,4.33,5.11-.76,2.76-3.19-2.39-4.38-2.35-.99.03-1.84.92-1.79,2.34.13,3.24,4.7,2.32,5.94,5.36.75,1.82.81,5.04-.48,6.69Z"/>
  <path class="cls-3" d="M153.36,162.31l-7.67-.05v-18.33l7.67-.05c.56.87.41,1.95,0,2.5l-4.95.04.06,5.12,4.24.06c.2.34.53.97.24,2.56l-4.53.1.06,5.25,5.01.07c.44,1.14.21,2.14-.13,2.73Z"/>
  <path class="cls-3" d="M634.07,156.66c.1,3.51-1.56,5.81-4.78,5.79-2.79-.02-5.09-2.45-4.45-5.34,3.21-.93,2.65,2.84,4.49,2.69,1.02-.08,1.79-.7,1.95-2.11.58-5.05-6.36-2.81-6.34-8.93.01-3.2,1.89-5.14,4.41-5.18,2.56-.03,5.28,2.15,4.36,5.14-.28.92-2.44.58-2.49-.26-.06-.99-.4-1.62-.93-1.93-.81-.47-2.19-.14-2.55,1.15-1.3,4.7,6.14,2.54,6.33,8.98Z"/>
  <path class="cls-3" d="M303.52,162.13l-8.13.11v-18.31s7.73-.02,7.73-.02c.44.78.37,1.87.03,2.49l-4.93.06c-.34,2.17-.31,3.34.14,5.33,1.8-.31,3.44-.88,5.17,1.59-2.33,1.39-3.56.87-5.31.74v5.36l3.12.03c1.44.01,2.5.5,2.18,2.62Z"/>
  <path class="cls-3" d="M390.49,157.21c-.12,3.51-1.87,5.37-4.8,5.26-2.18-.09-4.96-2.36-3.97-5.16.37-.61,2.43-.4,2.47.13-.11,1.28,1.05,2.41,1.99,2.23,1.6-.3,1.66-2.33,1.56-3.26-.35-3.19-6.63-2.28-6.11-8.34.22-2.61,2.17-4.26,4.1-4.46,2.6-.26,5.32,2.36,4.39,5.04-.39,1.1-2.53.59-2.52-.23.11-1.5-1.06-2.37-2.27-1.95-.99,1.06-1.02,2.03-.96,2.65.29,2.96,6.33,1.84,6.12,8.09Z"/>
  <path class="cls-3" d="M418.11,162.16c-1.75.76-5.6.04-5.64-2.51l-.2-11.96c-.05-2.67,2.23-4.09,4.33-4.1,2.4,0,4.56,1.96,4.14,5.04-.09.62-2.11.85-2.36.09-.34-1.04-.52-1.66-.83-1.99-.71-.74-2.52-.41-2.55.96l-.19,9.56c-.03,1.74,1.04,2.51,1.75,2.53.64.02,1.94-.71,1.43-2.38.58-.52,1.86-.65,2.77-.32.5,2.28-.67,4.22-2.65,5.08Z"/>
  <path class="cls-3" d="M680.57,143.99l-3.41,17.03c-.19.99-1,1.65-2.56,1.24l-3.7-17.76c-.18-.88,2.61-1.16,2.86.11.7,3.51.45,6.37,1.87,9.75,1.66-3.44,1.16-6.25,2.12-9.98.54-.72,2.2-.77,2.82-.39Z"/>
  <path class="cls-3" d="M135.51,161.11c.59,2.18-2.59,2.16-1.99,0-.4-2.48-.29-4.14-.4-6.37-.09-.75-2.22-1.17-3.12-.35-.07,1.96.1,4.08-.52,6.71.66,2.18-2.59,2.19-1.98-.02l-.14-15.73c-.26-2.17,2.56-2.28,2.33.08l.43,5.61c.55.91,2.34.94,3.02.4l.18-6.1c-.06-2.52,3.02-1.89,2.28.49l.26,11.88c.02.98-.26,1.95-.35,3.4Z"/>
  <path class="cls-3" d="M616.24,162.19l-7.83-.08v-17.9s7.98-.26,7.98-.26l-.11,2.29-4.93.03c-.38,1.79-.34,3.2-.23,5.37l3.84-.02c.6,0,1.49,1.57.08,2.4-.78.42-2.91-.6-3.86.85l-.07,4.59,5.05-.06c.32.78.41,1.71.08,2.79Z"/>
  <path class="cls-3" d="M598.69,146.29c-1.81.05-3.13-.11-4.74.37v5.05s4.35.1,4.35.1c.37.91.3,1.61.02,2.45l-4.36.37.1,7.36c-.7.29-1.68.39-2.8.07l-.05-18.14h7.5c.93.6.5,2.33-.02,2.37Z"/>
  <path class="cls-3" d="M117.36,157.09c1.14,2.04-.38,4.41-2.5,5.18-1.6.59-5.18.03-5.19-2.7l-.06-12.77c-.01-2.27,2.92-3.48,4.41-3.2,1.78.34,3.59,1.77,3.77,4.22.11,1.6-2.39,1.84-2.7.59-.27-1.06-.48-1.51-1.06-1.95-.51-.39-1.96-.01-1.98.95l-.15,10.59c-.02,1.22.85,1.53,1.22,1.68.38.17,1.45.02,1.63-.92.15-.85.47-1.32.67-1.61.2-.29,1.7-.49,1.94-.06Z"/>
  <path class="cls-3" d="M60.93,162.29c-1.68.6-5.22-.07-5.3-2.71l-.32-10.85c-.08-2.85,1.69-4.77,3.85-5.11,2.47-.4,5.75,2.23,4.41,5.03-.58,1.21-2.89.02-2.49-1.35-.66-1.32-2.31-1.21-2.89,0l-.11,11.07c0,.98,1.3,1.62,1.99,1.28.58-.28,1.19-.86,1.4-2.2.13-.78,2.22-.83,2.38.09.44,2.47-1.23,4.16-2.92,4.75Z"/>
  <path class="cls-3" d="M552.8,146.39c-1.16-.18-1.97-.18-2.99.25v15.55s-2.55-.09-2.55-.09l-.16-15.49c-1.06-.4-1.93-.36-2.97-.26-.19-.66-.25-1.51.02-2.43h8.59c.43.78.36,1.91.06,2.47Z"/>
  <path class="cls-3" d="M650.67,146.39c-1.19-.17-1.96-.18-3,.24v15.22c-.78.54-1.78.53-2.53.22l-.18-15.45c-1.06-.4-1.93-.37-2.96-.27-.19-.66-.25-1.49.04-2.46l8.58.04c.42.76.35,1.91.05,2.46Z"/>
  <path class="cls-3" d="M714.67,162.08l-8.07.18-.07-17.67c0-.45,1.33-1.2,2.62-.68l.16,14.9c.01.52,1.75,1.13,2.83.62,2.03-.31,2.83.73,2.53,2.65Z"/>
  <path class="cls-3" d="M286.32,162.09l-8.09.17-.06-17.67c0-.44,1.3-1.2,2.62-.69l.17,14.92c.01.51,1.69,1.12,2.79.62,2.04-.33,2.86.71,2.57,2.65Z"/>
  <path class="cls-3" d="M269.38,162.1l-8.1.15-.06-17.66c-.01-.43,1.27-1.19,2.62-.69l.18,14.92c0,.5,1.65,1.11,2.76.63,2.03-.35,2.89.68,2.6,2.65Z"/>
  <path class="cls-3" d="M170.77,162.12l-8.14.12v-18.22c.98-.21,1.68-.22,2.67-.02l.02,14.85c0,.44,1.43,1.07,2.62.68,2.05-.56,3.17.49,2.83,2.59Z"/>
  <path class="cls-3" d="M235.46,144.62l-3.21,16.01c-.31,1.52-1.13,1.77-2.16,1.61-1.58-.25-.71-1.7-1.06-2.27.71-1.19.73-3.05-.72-3.29-.15-.51-.38-1.25-.12-1.81.52-1.1.58-2.9-.91-3.14-.02-.52-.36-1.29-.09-1.78.17-.31.26-1.23.2-1.64-.06-.36-.4-.76-1.02-.61v-2.96s2.12-.05,2.12-.05c.12.21.18.52.08.77-.53,1.09-.6,2.93.85,3.24.03.92.43,1.89.15,2.82-.6,1.95-.51,4.03,1.43,5.24.68-.99.35-1.62.35-2.07.06-3.58.65-7.35,1.59-10.85,1.22-.54,2.61.3,2.52.78Z"/>
  <path class="cls-1" d="M228.49,144.69l-2.13.05c-.13-.92,1.41-.67,2.13-.05Z"/>
  <path class="cls-3" d="M350.18,152.69c.26-.34.42-.64.48-.91-.42.11-.62.63-.48.91ZM350.18,152.69c.02.22.03.44.05.66-.03.85-.5,1.47-1.15,2.28.21.09.41.13.58.11.32-.01.56-.18.74-.44.48-.69.44-2.01-.22-2.61ZM345.16,152.72c-.21.55-.34,1.35-.31,2.09-.14-.73-.35-1.43-.64-2.11v8.95c.69-2.11.95-4.06.78-5.86.17.53.48.9.98.9.1-.03.22-.04.35-.05l-1.16-3.92ZM344.21,152.7c.18-.31.36-.42.56-.36.12.04.25.18.39.38.22-1.21-1.13-1.21-.95-.02Z"/>
  <path class="cls-3" d="M349.08,155.63c.17,1.32-.19,2.65-1.85,3.55-.92-1.14-.82-1.85-.91-2.54l-1.16-3.92c.22-1.21-1.13-1.21-.95-.02v8.95c-.49.03-1.05.13-1.99-.15l-.03-15.83c0-1,1.05-1.26,1.52-.93.48.32.78.96.47,1.81.58.26.95.19,1.1.16,0,.21.16.55.01.84-.34.64.1,1.38.91,1.22.04.49.34,1.18.11,1.74-.35.68.09,1.36.86,1.28-.13.36,0,1.36,1.17,1.02-.35-1.22-.13-2.02.71-2.35.09.44.09,1.21,0,1.69-.08.4.66.8,1.13.54.02.22.03.44.05.66-.03.85-.5,1.47-1.15,2.28Z"/>
  <path class="cls-3" d="M320.25,145.74c-.88-.15-1.28.64-.84,1.26.27.57-.04,1.21-.09,1.72-.88-.19-1.36.58-.92,1.25.27.57-.05,1.22-.09,1.73-.88-.2-1.33.62-.87,1.24l-.15,9.02c-.64.29-1.49.43-2.61.09l-.12-7.34-3.39-10.72c1.17-.31,1.94-.15,2.82.05.66,2.03,1.31,3.86,1.25,5.68-.02.59.22.85.56,1.02.55.28,1.57-.06,1.5-.97l-.18-2.23c-.04-.6.04-1.16.18-1.69,1-.74,1.71-1.34,2.95-1.11-.06.3-.06.71,0,1Z"/>
  <polygon class="cls-3" points="661.8 162.21 659.21 162.21 659.19 143.92 661.78 143.92 661.8 162.21"/>
  <path class="cls-3" d="M353.49,144.59l-.09,12.07-.24,5.86c-1.13.67-1.99-.02-1.99-.85l-.04-9.86c-.18-.07-.33-.07-.47-.03.19-.74-.34-1.18-1.61-1.32-.15-.83,1.06-4.92,2.06-6.27.5-.68,2.38-.48,2.38.4Z"/>
  <path class="cls-2" d="M350.66,151.78c-.42.11-.62.63-.48.91-.47.26-1.21-.14-1.13-.54.09-.48.09-1.25,0-1.69,1.27.14,1.8.58,1.61,1.32Z"/>
  <path class="cls-3" d="M351.17,161.67c-.32-2.14-.58-4.27-.77-6.37-.07-.65-.12-1.3-.17-1.95-.02-.22-.03-.44-.05-.66-.14-.28.06-.8.48-.91.14-.04.29-.04.47.03l.04,9.86Z"/>
  <path class="cls-3" d="M187.41,161.63h-7.88l-.06-17.71,1.97-.19-.03,15.03c0,.75.57,1.01,1.06.84l3.98-.03c-.21.66.25,1.24.97,1.1-.06.31-.06.65-.01.96Z"/>
  <path class="cls-1" d="M181.41,158.76l.03-15.03c.31,5.31.65,10.6,1.03,15.87-.49.17-1.06-.09-1.06-.84Z"/>
  <path class="cls-3" d="M179.53,161.63h7.88c-2.06.85-5.72.78-7.88,0Z"/>
  <path class="cls-1" d="M186.45,159.57l.97,1.1c-.72.14-1.18-.44-.97-1.1Z"/>
  <rect class="cls-3" x="400.13" y="143.75" width="1.99" height="18.9"/>
  <path class="cls-3" d="M344.18,146.55c.31-.85.01-1.49-.47-1.81-.47-.33-1.52-.07-1.52.93l.03,15.83c.94.28,1.5.18,1.99.15-.74.89-1.97.62-2.47-.5-.34-.73-.44-15.45,0-16.13,1.5-2.29,2.79.16,3.54,1.69-.15.03-.52.1-1.1-.16Z"/>
  <path class="cls-3" d="M344.21,161.65c-.23.51-.52,1.42-1.47.97-.32-.14-.92-.75-1.48-1.27l-.02-17.36c1.44-.68,2.68-.28,3.48.7.45.55.6,1.09.56,2.02-.75-1.53-2.04-3.98-3.54-1.69-.44.68-.34,15.4,0,16.13.5,1.12,1.73,1.39,2.47.5Z"/>
  <path class="cls-1" d="M182.47,159.6c-.49.17-1.06-.09-1.06-.84l.03-15.03c.41-.04,1.02.11,1.02.97v14.9Z"/>
  <path class="cls-2" d="M467.07,143.83l-.09,9.91c-1.81-.65-1.98-1.74-2.01-3.04.07.02.17.03.28.03l.74.09c.34-2.36.7-4.69,1.08-6.99Z"/>
  <path class="cls-1" d="M467.07,143.83c-.38,2.3-.74,4.63-1.08,6.99l-.74-.09c.19,0,.45-.04.75-.18l.06-6.64,1.01-.08Z"/>
  <path class="cls-3" d="M346.32,156.64c-.13.01-.25.02-.35.05-1.67.43.21,3.48-1.76,4.96v-8.95c.16-.36.35-.48.56-.36.12.04.25.18.39.38l1.16,3.92Z"/>
  <path class="cls-3" d="M351.17,161.67c-.33.09-1.02-.12-1.02-.94l.02-4.89-.51-.1-.58-.11c.65-.81,1.12-1.43,1.15-2.28.01-.2,0-.42-.05-.66-.14-.28.06-.8.48-.91.14-.04.29-.04.47.03l.04,9.86Z"/>
  <path class="cls-3" d="M187.27,162.62h-7.67c-.21-.49-.1-.83-.07-.99h7.88c.03.16.08.5-.14.99Z"/>
  <path class="cls-2" d="M231,156.76c-1.94-1.21-2.03-3.29-1.43-5.24.07,2.05,1.13,5.65,1.78,3.17,0,.45.33,1.08-.35,2.07Z"/>
  <path class="cls-1" d="M231.35,154.69c-.65,2.48-1.71-1.12-1.78-3.17.32.03.92.33.92,1.21-.57,1.04-.07,1.96.86,1.96Z"/>
  <path class="cls-2" d="M448.04,144.82c-1.07-.33-2,.27-2.97,1.02.23-1.6,1.9-2.25,2.97-1.02Z"/>
  <path class="cls-1" d="M448.04,144.82c-1.07-1.23-2.74-.58-2.97,1.02-.23-.79-.16-1.74.51-2.05,1.04-.48,2.42-.15,2.46,1.03Z"/>
  <path class="cls-2" d="M317.3,149.77c.07.91-.95,1.25-1.5.97-.34-.17-.58-.43-.56-1.02.98.75,1.61.03,1.88-2.18l.18,2.23Z"/>
  <path class="cls-1" d="M317.12,147.54c-.27,2.21-.9,2.93-1.88,2.18.36.13,1.12-.08,1.05-.98-.25-.91.47-1.25.83-1.2Z"/>
  <path class="cls-1" d="M228.49,144.69l-2.13.05c-1.14.26-1.15-1.12-.12-.98,1.25-.38,2.05.11,2.25.93Z"/>
  <path class="cls-2" d="M229.03,159.97c.11-1.2-.13-2.3-.72-3.29,1.45.24,1.43,2.1.72,3.29Z"/>
  <path class="cls-1" d="M229.03,159.97c-.55-.9-.86-2.22-.72-3.29.59.99.83,2.09.72,3.29Z"/>
  <path class="cls-2" d="M229.42,148.7c-1.45-.31-1.38-2.15-.85-3.24l.85,3.24Z"/>
  <path class="cls-1" d="M229.42,148.7l-.85-3.24c1.22.69.82,2.11.85,3.24Z"/>
  <path class="cls-2" d="M228.19,154.87l-.91-3.14c1.49.24,1.43,2.04.91,3.14Z"/>
  <path class="cls-1" d="M228.19,154.87c-1.22-.66-.86-2.02-.91-3.14l.91,3.14Z"/>
  <path class="cls-2" d="M320.25,144.74c-1.24-.23-1.95.37-2.95,1.11.72-1.23,1.98-2.25,2.95-1.11Z"/>
  <path class="cls-2" d="M320.25,144.74c-.97-1.14-2.23-.12-2.95,1.11.17-1.28,1.36-2.33,2.37-2.12.37.08.7.45.58,1.01Z"/>
  <path class="cls-2" d="M227.19,149.95l-.82-2.25c.62-.15.96.25,1.02.61.06.41-.03,1.33-.2,1.64Z"/>
  <path class="cls-1" d="M227.19,149.95c-.99-.43-.82-1.33-.82-2.25l.82,2.25Z"/>
  <path class="cls-2" d="M319.32,148.72l-.92,1.25c-.44-.67.04-1.44.92-1.25Z"/>
  <path class="cls-1" d="M319.32,148.72c-.06.61-.24,1.14-.92,1.25l.92-1.25Z"/>
  <path class="cls-2" d="M318.31,151.7l-.87,1.24c-.46-.62-.01-1.44.87-1.24Z"/>
  <path class="cls-1" d="M318.31,151.7c-.04.62-.23,1.14-.87,1.24l.87-1.24Z"/>
  <path class="cls-2" d="M346.2,148.77c-.81.16-1.25-.58-.91-1.22l.91,1.22Z"/>
  <path class="cls-1" d="M346.2,148.77l-.91-1.22c.79,0,1.01.6.91,1.22Z"/>
  <path class="cls-2" d="M320.25,145.74l-.84,1.26c-.44-.62-.04-1.41.84-1.26Z"/>
  <path class="cls-1" d="M319.41,147l.84-1.26c.12.6-.19,1.19-.84,1.26Z"/>
  <path class="cls-1" d="M187.42,160.67c-.72.14-1.18-.44-.97-1.1.64-.01,1.09.41.97,1.1Z"/>
  <path class="cls-2" d="M347.17,151.79c-.77.08-1.21-.6-.86-1.28l.86,1.28Z"/>
  <path class="cls-1" d="M347.17,151.79l-.86-1.28c.75.01,1.07.66.86,1.28Z"/>
  <path class="cls-3" d="M487.7,147.78c0-2.48-2.2-4.04-4.66-3.94l-3.88.14v18.2s5.21-.13,5.21-.13c1.6-.04,3.36-1.69,3.36-3.88l-.03-10.39ZM485.05,157.72c-.02,1.33-1.7,2.51-3.15,1.91l.16-12.95c.01-.59,2.2-.4,2.42.06.2.41.66.84.65,1.98l-.08,9Z"/>
  <path class="cls-1" d="M485.13,148.72l-.08,9c-.02,1.33-1.7,2.51-3.15,1.91l.16-12.95c.01-.59,2.2-.4,2.42.06.2.41.66.84.65,1.98Z"/>
  <path class="cls-1" d="M485.13,148.72l-.08,9c-.02,1.33-1.7,2.51-3.15,1.91l.16-12.95c.01-.59,2.2-.4,2.42.06.2.41.66.84.65,1.98Z"/>
  <path class="cls-3" d="M79.01,143.74c-1.99-.6-5.39.48-5.43,3.06l-.16,11.88c-.04,2.57,2.51,3.94,4.62,3.78,1.71-.13,4.16-1.41,4.18-4.33l.04-9.39c.01-2.75-1.37-4.45-3.25-5ZM78.04,159.69c-2.42,1.55-2.31-4.52-2.01-11.67.04-.97.73-1.34,1.1-1.6.4-.27,2.15.05,2.15.61l.06,10.99c.01,1.26-.97,1.46-1.3,1.67Z"/>
  <path class="cls-1" d="M79.34,158.02c.01,1.26-.97,1.46-1.3,1.67-2.42,1.55-2.31-4.52-2.01-11.67.04-.97.73-1.34,1.1-1.6.4-.27,2.15.05,2.15.61l.06,10.99Z"/>
  <path class="cls-1" d="M79.34,158.02c.01,1.26-.97,1.46-1.3,1.67-2.42,1.55-2.31-4.52-2.01-11.67.04-.97.73-1.34,1.1-1.6.4-.27,2.15.05,2.15.61l.06,10.99Z"/>
  <path class="cls-3" d="M534.1,153.96c2.17-1.45,2.54-3.4,2.37-5.51-.12-1.53-.81-3.65-2.84-4.29-1.69-.53-3.64-.34-5.96-.18l-.32,18.01c1.16.45,2.15.36,2.94-.11-.14-2.99-.61-5.14.5-8.04,2.19,2.61,2.14,5.05,3.3,8.03,1.01.72,2.45.4,2.82.18l-2.81-8.09ZM533.13,151.43c-.41.76-2.55.95-2.76.14-.38-1.45-.53-3.27.07-4.69.44-1.07,3.16-.63,3.29,1.44.13,1.84-.27,2.52-.6,3.11Z"/>
  <path class="cls-1" d="M533.13,151.43c-.41.76-2.55.95-2.76.14-.38-1.45-.53-3.27.07-4.69.44-1.07,3.16-.63,3.29,1.44.13,1.84-.27,2.52-.6,3.11Z"/>
  <path class="cls-1" d="M533.13,151.43c-.41.76-2.55.95-2.76.14-.38-1.45-.53-3.27.07-4.69.44-1.07,3.16-.63,3.29,1.44.13,1.84-.27,2.52-.6,3.11Z"/>
  <path class="cls-3" d="M202.23,145.8c-.25-1.19-.71-1.67-1.4-1.94-.5-.2-1.42,0-1.6.77l-3.86,17.47c1.5.48,2.28.02,2.62-.41.29-.37.4-1.31.48-1.96.21-1.67,1.63-1.59,2.45-1.5.65.07,1.82.09,1.74,1.89-.05,1.11.4,1.9.71,2.03.3.13,1,.22,2.27-.04l-3.41-16.31ZM199.35,154.18c-.17-1.75.25-2.51,1.56-3.45.16.12,1.02,1.06.29,2.91,1.35,2.37-2.22,3-1.85.54Z"/>
  <path class="cls-1" d="M199.35,154.18c-.17-1.75.25-2.51,1.56-3.45.16.12,1.02,1.06.29,2.91,1.35,2.37-2.22,3-1.85.54Z"/>
  <path class="cls-1" d="M199.35,154.18c-.17-1.75.25-2.51,1.56-3.45.16.12,1.02,1.06.29,2.91,1.35,2.37-2.22,3-1.85.54Z"/>
  <path class="cls-3" d="M694.18,145.37c-.25-1.14-.82-1.72-1.89-1.5-.69.14-1.08.85-1.31,1.94l-3.43,16.3c1.57.5,2.39-.02,2.69-.46.22-.34.23-1.32.3-1.95.2-1.7,1.77-1.66,2.63-1.44,2.48.64,1.16,3.11,2.44,3.88.3.18,1.01.25,2.23-.02l-3.66-16.75ZM692.57,156.28c-1.35-1.96-1.09-3.55-.59-5.6,1.95.98,2.85,3.6.59,5.6Z"/>
  <path class="cls-1" d="M692.57,156.28c-1.35-1.96-1.09-3.55-.59-5.6,1.95.98,2.85,3.6.59,5.6Z"/>
  <path class="cls-1" d="M692.57,156.28c-1.35-1.96-1.09-3.55-.59-5.6,1.95.98,2.85,3.6.59,5.6Z"/>
  <path class="cls-3" d="M97.37,145.79c-.25-1.18-.7-1.66-1.39-1.93-.5-.2-1.42,0-1.6.77l-3.86,17.47c1.51.48,2.28.03,2.61-.4.35-.45.41-1.3.49-1.95.22-1.73,1.65-1.58,2.45-1.53.69.05,1.65.07,1.7,1.51.03.92.28,2.04.71,2.41.4.34,2.15.2,2.35-.37l-3.46-15.98ZM94.5,154.18c-.17-1.75.25-2.51,1.56-3.45.16.12,1.02,1.06.29,2.91,1.35,2.37-2.22,3-1.85.54Z"/>
  <path class="cls-1" d="M94.5,154.18c-.17-1.75.25-2.51,1.56-3.45.16.12,1.02,1.06.29,2.91,1.35,2.37-2.22,3-1.85.54Z"/>
  <path class="cls-1" d="M94.5,154.18c-.17-1.75.25-2.51,1.56-3.45.16.12,1.02,1.06.29,2.91,1.35,2.37-2.22,3-1.85.54Z"/>
  <path class="cls-3" d="M515.14,144.61c-.22-1-1.71-1.06-2.25-.41-.27.32-.51.74-.69,1.61l-3.42,16.29c1.52.53,2.63.02,2.7-.47l.26-1.97c.22-1.62,1.72-1.63,2.69-1.4,2.32.54,1.06,3.06,2.41,3.89.31.19,1.04.24,2.19-.04l-3.89-17.5ZM513.83,156.28c-1.35-1.96-1.09-3.55-.59-5.6,1.94.98,2.84,3.6.59,5.6Z"/>
  <path class="cls-1" d="M513.83,156.28c-1.35-1.96-1.09-3.55-.59-5.6,1.94.98,2.84,3.6.59,5.6Z"/>
  <path class="cls-1" d="M513.83,156.28c-1.35-1.96-1.09-3.55-.59-5.6,1.94.98,2.84,3.6.59,5.6Z"/>
  <path class="cls-3" d="M249.04,145.82c-.24-1.15-.49-1.65-1.28-1.93-.52-.18-1.29-.04-1.49.83l-3.89,17.07c.83.88,2.41.6,2.61-.09l.78-2.69c.44-1.51,3.77-1.26,3.71.96-.05,2.09,1.12,2.77,3.01,2.13l-3.45-16.28ZM246.23,154.1l1.28-3.09c.15-.47,1.74.69.59,2.46,1.45,2.62-2.22,3.16-1.87.63Z"/>
  <path class="cls-1" d="M248.1,153.47c1.45,2.62-2.22,3.16-1.87.63l1.28-3.09c.15-.47,1.74.69.59,2.46Z"/>
  <path class="cls-1" d="M248.1,153.47c1.45,2.62-2.22,3.16-1.87.63l1.28-3.09c.15-.47,1.74.69.59,2.46Z"/>
  <path class="cls-3" d="M451.68,160.98l-2.54-11.29c-.61.22-1.03-.17-1.1-.54-.08-.5.13-1.35.24-1.71.2-.68-.04-1.92-.24-2.62-1.07-.33-2,.27-2.97,1.02-.32.31-.36,1.23-.17,1.66.14.33.25,1.14.17,1.66-.05.36-.43.76-1.04.57l-2.71,12.23c1.24.52,2.26.39,3.1-.09-.47-1.71.41-3.2,1.18-3.53,1.48-.62,3.34.37,3.23,2.36-.08,1.53.7,1.52,1.51,1.6.84.08,1.55-.39,1.34-1.32ZM447.82,153.97c-.14.23-.18.71-.23,1.61-.02.55-2.18.61-2.12-.45.03-.34.14-.66-.12-1.14-.18-.33-.41-1.05-.31-1.7.06-.36.42-.74,1.01-.58v-1.05c-.16-1.13,1.18-1.13,1.04-.01v1.03c.6-.15.93.25.99.62.07.45-.08,1.35-.26,1.67Z"/>
  <path class="cls-1" d="M447.82,153.97c-.14.23-.18.71-.23,1.61-.02.55-2.18.61-2.12-.45.03-.34.14-.66-.12-1.14l.7-2.28v-1.05c.31-.55.66-.54,1.04-.01v1.03l.73,2.29Z"/>
  <path class="cls-2" d="M449.14,149.69c-.61.22-1.03-.17-1.1-.54-.08-.5.13-1.35.24-1.71l.86,2.25Z"/>
  <path class="cls-1" d="M449.14,149.69l-.86-2.25c1.1.47.69,1.49.86,2.25Z"/>
  <path class="cls-2" d="M445.07,149.16c-.05.36-.43.76-1.04.57l.87-2.23c.14.33.25,1.14.17,1.66Z"/>
  <path class="cls-1" d="M444.03,149.73c.16-.73-.37-1.84.87-2.23l-.87,2.23Z"/>
  <path class="cls-1" d="M447.82,153.97c-.14.23-.18.71-.23,1.61-.02.55-2.18.61-2.12-.45.03-.34.14-.66-.12-1.14l.7-2.28v-1.05c.31-.55.66-.54,1.04-.01v1.03l.73,2.29Z"/>
  <path class="cls-2" d="M446.05,151.71l-.7,2.28c-.18-.33-.41-1.05-.31-1.7.06-.36.42-.74,1.01-.58Z"/>
  <path class="cls-1" d="M445.35,153.99l.7-2.28c.01.89.13,1.76-.7,2.28Z"/>
  <path class="cls-2" d="M447.82,153.97l-.73-2.29c.6-.15.93.25.99.62.07.45-.08,1.35-.26,1.67Z"/>
  <path class="cls-1" d="M447.82,153.97c-.9-.48-.97-1.43-.73-2.29l.73,2.29Z"/>
  <path class="cls-2" d="M447.09,150.65c-.38-.53-.73-.54-1.05.01-.15-1.13,1.19-1.13,1.05-.01Z"/>
  <path class="cls-1" d="M447.09,150.65h-1.05c.32-.54.67-.53,1.05,0Z"/>
  <path class="cls-1" d="M345.16,152.72l-.95-.02c-.18-1.19,1.17-1.19.95.02Z"/>
  <path class="cls-3" d="M501.36,120.29c-.48.86-.61,3.79-2.41,3.79h-13.98s-6.66-1.66-6.66-1.66l-3-.93c-2.84-.88-5.78-.99-8.51-2.37-2.7-1.36-5.79-1.17-8.74-2.07l-5.36-1.63-5.74-1.28c-2.38-.54-5.12-1.64-7.06-3.1-2.54-1.91.43-9.28,1.55-18.34l.81-6.6c1.01-8.19-5.36-8.54-4.78-11.66.28-1.57,1.51-3.28,2.21-4.55,7.51-3.54,6.45-17.12,1.47-19.85-2.74-1.51-4.95-4.12-3.82-7.43l6.68-3.36,6.3-2.53c5.34-2.14,8.97-5.6,14.77-8.16l4.05-1.8,6.87-2.98c1.28-.55,14.06.35,18.74,1.77,2.58.78,4.16,2.55,3.74,5.17-.45,2.9-1.62,4.45-3.47,6.72-2.76,3.39-6.05,5.25-11.12,5.1l-5.9-.17c-7.32-.22-14.04.59-21.08,2.69-2.09.62-4.06,1.98-4.66,4.29-1.19,4.55-.46,10.2,3.89,12.74,2.69,1.57,6.38.13,8.85-.47l3.29-.8c3.22-.78,5.69-1.45,8.8-2.31l6.09-1.68c4.88,2.01,6.27,7.72,3.97,12.42-1.13,2.3-3.41,3.07-6.15,3.11l-5.85.08c-2.2.03-3.37.23-5.2.36l-9.66.71c-1.87.14-4.17.95-4.8,2.89-2.34,7.23,2.59,13.26,2.62,15.57.02,2.26.86,3.59,1.35,5.42,3.61,13.4,14.6,9.67,15.14,10.01,1.52.94,3.11.92,4.78-.01.44-.25,4.41-.54,9.41-1.19l8.16-1.07c5.18-.67,8.19,8.42,4.41,15.16Z"/>
  <path class="cls-3" d="M422.89,76.46c-.38,1.94-2.47,2.8-4.69,3.07l-4.28.52,1.46,16c.7,7.58.98,15.24-.73,22.47-1.15,4.85-6.49,6.25-10.53,4.65-2.35-.93-3.23-1.63-3.5-3.95l-.85-7.25c-.22-1.87-.52-3.11.05-5.16.44-1.55-.36-4.35-.19-8.14l.53-11.66c.07-1.6,1.18-3.47-.06-4.95l-9.86,1.37c-5.7.79-10.88,2.04-16.61,2.04,1.69,10.95,2.07,20.66.99,30.77-.56,5.25-5.06,8.35-10.48,7.38-1.53-.28-3.4-.25-4.51-1.02-3.35-2.37-3.77-8.36-3.8-13.91l-.05-10.35c0-1.8.6-3.28.4-5.32-.56-5.75.8-11.26,1.79-16.85,1.3-7.4,1.46-14.47,2.12-21.88.28-3.06.85-5.86.87-9l.05-10.9c.02-3.61.94-7.15,4.24-9.31,2.58,1.91,3.1,5.25,3.32,8.27l.93,12.63.64,10.26,1.24,12.71c1.98.71,3.68.01,5.76.12l5.06.26c3.4.18,6.44.42,9.72,1.11l9.17,1.92c.89-1.71,1.41-3.25,1.47-4.87l.84-25.15c.2-6.07.29-12.78,3.7-17.15,2.39,1.09,2.76,3.76,2.88,6.17l.41,8.74.85,9.2c.48,5.31.41,10.17,1.27,15.38.44,2.64-.53,5.59.76,8.27,3.59-.14,7.13.81,9.62,3.51Z"/>
  <path class="cls-3" d="M181.32,79.17l-.67,3.1c-1.24,5.76-2.75,10.88-6.13,15.8-5.39,7.84-7.35,12.23-17.75,15.26-6.01,1.75-12.4,1.99-18.52,1-8.51-1.39-10.81-6.49-14.6-11.41-2.33-3.01-4.1-6.16-5.04-9.79l-2.32-8.99c-.59-2.27-.55-4.72-.44-6.93l.18-3.66c.1-1.96-.4-3.49.22-5.52l1.44-4.73c2.15-7.03,5.79-17.51,8.34-18.2,4.45-1.2-1.19,8.77-1.27,15.14-.06,4.92-.89,9.68.37,14.27l.7,2.52c.68,2.5,2.16,4.48,3.17,6.51,2.22,4.43,5.55,7.14,10.12,8.98,3.41,1.37,10.61,1.58,13.05.33,6.27-3.21,13.67-9.34,14.06-14.83.19-2.71,1.4-5.31,1.89-7.98.78-4.28-1.24-8.62-1.8-12.72-1.29-9.39-7-15.66-16.17-15.43-7.23.18-10.71,5.05-12.56,4.34-4.38-1.66,5.11-10.63,7.98-10.79l10.84-.59,10.14,1.03c5.72,3.96,7.4,7.79,9.47,13.04l3.03,7.65,1.6,6.38c1.17,4.66,1.55,12.15.67,16.22Z"/>
  <path class="cls-3" d="M110.49,118.93c-.47,6.92-12.72,6.28-22.66,3.64-1.96-.52-4.24-.09-6.33-1.62-2.59-1.91-5.6-2.67-8.61-3.6-4.94-1.52-16.34-10.78-20.2-16.32l-6.18-8.88c-1.56-2.24-4.68-12.67-4.14-16.41l.6-4.21c.25-1.71,1.28-2.94,1.34-4.7.07-1.97-.02-3.62,1.53-5.63,1.05-1.34,1.74-8.63,7.29-15.35,5.47-6.61,8.44-15.07,18.43-19.3,1.83-.78,5.55.54,10.45.53,6.12-2.58,13.34-3.59,20.55-2.88.94.42,1.36.79,1.66,1.07.86.8.28,1.96.04,2.68-.91,2.76-1.99,3.05-4.36,4.13-1.39.64-6.81,5.36-16.42,9.12-1.77.69-4.38,3.88-9.67,7.27-3.73,2.39-6.34,6.46-8.54,10.49l-4.52,8.29-1.79,8.22c-1.76,8.12.45,19.31,6.66,24.41,4.77,3.92,6.95,10.75,20.79,13.4.66.13,1.83,1.38,3.16,1.06,2.92-.69,5.41.92,8.02,1.34,5.38.89,13.16-.61,12.9,3.25Z"/>
  <path class="cls-3" d="M335.95,123.43c-5.43,2.24-25.15-.61-28.49-3.87-1.42-1.38-4.21-1.78-5.82-2.17-.84-.2-1.72-2.06-3.49-1.35-5.2-4.23-10.65-7.85-14.84-13.04l-4.05-5.02-3.56-5.26c-3.74-5.51-4.78-21.82-3.08-27.24l2.87-9.2c1.18-3.77,6.33-13.7,7.17-14.62l4.75-5.17,4.73-4.19c2.4-2.13,3.78-4.2,7.17-4.99l4.91-2.68c1.32-.73,2.59-.82,3.81-1.73l19.42-.02c2.18,1.75,4.99,1.13,5.64,3.11.34,1.02-.11,2.29-.81,3.41-.95,1.53-2.51,1.45-3.99,1.93l-11.37,3.63c-2.46.79-4.47,1.8-6.68,3.38l-5.82,4.15c-4.37,3.12-8.1,6.71-10.33,11.67-5.06,11.24-9.18,20.89-5.03,33.02l2.32,6.77c1.05,3.06,3.03,4.78,5.17,6.77,7.28,6.8,11.52,13.07,24.42,13.71l5.19,1.43,7.17.12c1.74.03,4.2-.22,5.07,1.96.87,2.2-.59,4.72-2.45,5.49Z"/>
  <path class="cls-3" d="M573.5,117.26c.14,1.02-1.46,3.22-2.55,3.71-4.95,1.04-9.1-1.29-13.39-2.44-2.57-.69-4.48-.97-7.07-2.2l-7.47-.37-6.08-1.21c-3.07-.61-5.94-.5-8.91-1.22l-9.17-2.24c-2.02-.49-3.59-2.12-2.55-4.05,1.47-2.71,7.69-.56,9.32-5.63l1.19-3.7.65-4.21c.41-2.66-.11-5.77-.87-8.27-.67-2.19.4-4.13.4-6.23.01-2.58-.68-4.51.18-6.91.95-2.65.07-6.06.39-9.03l.85-8.04c.15-1.4.28-3.57.13-4.92-.31-2.89.51-5.2.34-7.97l-.49-7.95c-.11-1.78.51-2.88.98-4.4.99-3.19,1.19-6.64,4.04-5.75,3.63,1.12,2.8,8.66,3.59,12.16l.69,2.99c.4,1.78.32,3.18.48,4.93l.99,10.75.94,7.18c.31,2.32,1.07,4.57.62,6.88-.39,2.03.92,3.51,1.05,5.02l1.32,15.84,1.21,4.71c.89,3.44,2.97,5.47,5.83,7.09,3.56,2.03,7.15,1.33,10.88-.68,3.64-1.96,9.3-1.48,10.64,2.99l.21,7.79,1.63,5.38Z"/>
  <path class="cls-3" d="M641.9,118.47c-1,4.2-5.56,2.49-13.51,1.95l-8.53-.57-5.28-1.36c-3.05-.79-5.25-1.17-8.09-2.02l-7.69-2.32-9.69-2.49c-.56-.14-1.08-.94-.97-1.22l.59-1.54c1.53-3.95,5.17-4.59,6.82-11.9l.75-3.3.86-4.44.56-15.11-.13-30.84-.02-5.93c-.86-5.41.85-11.98,2.88-12.79,4.89-1.95,4.49,6.49,5.28,12.67l1.16,9.05.89,8.9.7,5.05.87,4.96c.48,2.77.28,5.1.41,8.02l.54,11.63c.04.88.9,1.89.74,3.22-.4,3.44.5,6.82,1.32,9.58.15.52-.68,1.47.79,2.13,1.94.88,4.28.74,6.38,1.65l2.03.89c2.5,1.08,5.72.46,8.56.03,1.61-.25,2.75.76,3.96,1.05,5.9,1.43,5.8,6.7,6.53,9.71l1.29,5.34Z"/>
  <path class="cls-3" d="M727.97,112.66l-1.71-7.39-.64-8.16-1.5-4.61c-.7-2.15-.07-2.95,1.27-4.74,1.72-2.28-4.16-3.24-5.08-6.41-.57-1.98-2.16-4.11-2.14-6.22.03-2.59-1.49-6.48-2.7-7.78-1-1.08-.25-2.91-.69-4.07l-1.93-5.05-1.7-6.68c-.51-2.02-1.5-4.23-2.45-6.25l-2.3-4.87-1.98-6.08c-.54-1.64-2.25-4.03-3.52-5.14-2.61-.26-4.84-.37-7.17.1l-3.65.74-4.41,1.42-3.79,2.72c-2.98.46-6.34,5.96-8.81,10.37.5,2.15-.85,3.79-1.25,5.75l-1.02,4.93-1.33,6.24c-.63,2.91-1.3,4.73-1.96,7.52l-3.03,12.75c-.63,2.62-1.51,5.87-2.23,7.7l-2.24,5.69-2.39,7.81c-1.1,3.6-2.86,6.57-3.39,10.48-.26,1.85,3.28,4.39,5.1,3.25,2.97-1.86,5.83-6.61,7.67-10.48l2.47-5.2c1.97-4.14,6.01-8.94,7.17-8.68,2.14.49,3.69-.89,5.05-.9l20.99-.07c1.42,0,2.46.45,4.67-.1,1.8-.44,2.61,1.98,2.99,2.96l2.83,7.15c.98,2.46,2.46,4.29,3.42,6.58l1.69,4.05,2.85,5.27c.75,1.38,1.04,2.66,2.44,3.21.71.28,2.39.82,3.31-.56,1.13-1.69,1.57-5.18,1.09-7.25ZM695.78,80.83c-6.65-2.17-11.31.09-14.44-2.39,1.92-2.27.84-4.3,1.79-6.06l3.36-6.23.99-3.99c.67-2.72,2.11-5.96,5.17-5.97,6.47,5.32,6.95,11.01,8.97,15.99l3.98,9.81c-3.45.49-6.51-.08-9.82-1.16Z"/>
  <path class="cls-1" d="M705.6,81.99c-3.45.49-6.51-.08-9.82-1.16-6.65-2.17-11.31.09-14.44-2.39,1.92-2.27.84-4.3,1.79-6.06l3.36-6.23.99-3.99c.67-2.72,2.11-5.96,5.17-5.97,6.47,5.32,6.95,11.01,8.97,15.99l3.98,9.81Z"/>
  <path class="cls-1" d="M705.6,81.99c-3.45.49-6.51-.08-9.82-1.16-6.65-2.17-11.31.09-14.44-2.39,1.92-2.27.84-4.3,1.79-6.06l3.36-6.23.99-3.99c.67-2.72,2.11-5.96,5.17-5.97,6.47,5.32,6.95,11.01,8.97,15.99l3.98,9.81Z"/>
  <path class="cls-3" d="M258.6,111.68c-2.28-6.64-.49-14.93-4.58-21.66.83-.88,1.68-1.9,1.79-2.96-.37-1.49-2.43-2.31-3.09-3.14-4.06-6.27-3.43-11.6-4.65-13.78-2.59-4.62-2.17-6.99-3.64-10.91l-1.08-2.88c-.71-1.89-.44-3.32-1.14-5.06l-5.57-13.98c-1.47-3.68-2.82-8.03-6.26-8.23-4.5-.28-13.68.87-15.71,1.83-4.33,2.04-10.27,9.36-10.62,15.07-.1,1.61-1.33,2.76-1.54,4.31l-1.1,7.95c-.18,1.31-1.34,2.34-1.04,3.97.55,2.92-1.46,5.72-2.79,10.89l-1.02,3.96c-.51,1.98-.34,3.28-1,5.17-.64,1.84-1.19,3.33-1.78,5.22l-1.66,5.29c-.48,1.55-.73,2.52-1.3,4.02l-2.08,5.49c-.75,1.99-2.05,3.6-2.32,5.83l-.3,2.56c-1.47,2.01-1.14,4.14,1.01,5.69.78.56,1.82,1.27,2.72.91,2.25-.9,3.69-3.84,4.24-4.36,2.11-1.96,2.01-3.63,3.4-6.03l2.84-4.87c1.32-2.27,1.86-4.55,4.06-6.59,5.69-.11,11.72-.21,17.99-1.35l17.1-3.13c1.89,2.08,2.54,4.28,3.21,6.85.59,2.3,2.27,4.21,3.26,6.26l2.03,4.22c.63,1.3.87,4.29,3.64,8.52.94,1.43,1.43,3.63,3.72,4.15,3,.69,4.61-5.3,3.26-9.23ZM235.65,82.47c-3.9-.26-7.02-1.08-10.36-2.08-5.6-1.69-10.49.82-12.43-2.29l4.64-7.98,3.3-4.51c1.05-.15,2.45-.65,3.1-1.13,1.7.75,3.28,1.39,4.38,2.72l2.71,3.28c1.46,5.84,6.32,9.17,4.66,11.99Z"/>
  <path class="cls-1" d="M235.65,82.47c-3.9-.26-7.02-1.08-10.36-2.08-5.6-1.69-10.49.82-12.43-2.29l4.64-7.98,3.3-4.51c1.05-.15,2.45-.65,3.1-1.13,1.7.75,3.28,1.39,4.38,2.72l2.71,3.28c1.46,5.84,6.32,9.17,4.66,11.99Z"/>
  <path class="cls-1" d="M235.65,82.47c-3.9-.26-7.02-1.08-10.36-2.08-5.6-1.69-10.49.82-12.43-2.29l4.64-7.98,3.3-4.51c1.05-.15,2.45-.65,3.1-1.13,1.7.75,3.28,1.39,4.38,2.72l2.71,3.28c1.46,5.84,6.32,9.17,4.66,11.99Z"/>
</svg>