<?xml version="1.0" encoding="UTF-8"?>
<svg id="Capa_1" data-name="Capa 1" xmlns="http://www.w3.org/2000/svg" xmlns:xlink="http://www.w3.org/1999/xlink" viewBox="0 0 392.21 395.42">
  <defs>
    <style>
      .cls-1 {
        fill: url(#Degradado_sin_nombre_6-3);
      }

      .cls-2 {
        fill: url(#Degradado_sin_nombre_6-2);
      }

      .cls-3 {
        fill: url(#Degradado_sin_nombre_6);
      }
    </style>
    <linearGradient id="Degradado_sin_nombre_6" data-name="Degradado sin nombre 6" x1="17.31" y1="193.48" x2="381.55" y2="193.48" gradientUnits="userSpaceOnUse">
      <stop offset="0" stop-color="#f728e2"/>
      <stop offset="1" stop-color="#a206fa"/>
    </linearGradient>
    <linearGradient id="Degradado_sin_nombre_6-2" data-name="Degradado sin nombre 6" x1="178.6" y1="321.89" x2="262.05" y2="321.89" xlink:href="#Degradado_sin_nombre_6"/>
    <linearGradient id="Degradado_sin_nombre_6-3" data-name="Degradado sin nombre 6" x1="124.82" y1="345.82" x2="184.44" y2="345.82" xlink:href="#Degradado_sin_nombre_6"/>
  </defs>
  <path class="cls-3" d="M381.55,27.34v3.56c-1.1,1.98-3.03,4.31-5.54,4.33l-9.94.06-17.64,17.77,25.33.05c3.6,0,6.15.96,7.79,4.11v3.56c-.88,1.48-2.88,4.24-4.86,4.25l-19.03.09-.02,25.52c14.07,4.86,21.25,19.6,16.38,33.76l-10.75,31.23c-.96,2.8-3.54,4.34-6.93,4.02l-40.39,162.68c-.98,3.95-3.58,6.12-7.31,5.34-3.07-.64-5.34-3.46-4.55-7.27l40.89-164.66-37.99-12.95-53,75.72,49.36,136.58c1.31,3.62.03,6.79-3.24,8.15-2.73,1.14-6.51.02-7.78-3.5l-46.69-129.23-20.67,29.41c-2.04,2.9-5.99,3.02-8.45,1.12-2.26-1.74-3.16-5.27-1.25-8l25.39-36.32-26.67-73.96-35.18-.02-37.18,111.56,23.7,34.05c2,2.87,1.41,6.39-.94,8.28s-6.54,1.87-8.5-.94l-18.95-27.22-30.45,91.31c-1.17,3.5-5.13,4.56-7.78,3.46-2.94-1.21-4.57-4.18-3.43-7.58l33.14-99.48-66.51-95.51c-2.57.62-4.98.14-6.89-1.72l-24.64-23.76c-9.49-9.15-9.97-25.05-1.12-34.58l11.94-12.86.19-22.65-17.77.04c-3.67,0-6.31-2.61-6.32-6.11-.01-2.93,2.4-5.66,5.78-5.84l9.73-.1,17.59-17.75-27.48-.11c-3.38-.01-5.69-3.08-5.6-6.08s2.24-5.83,5.95-5.83h352.91c2.59,0,4.23,2.6,5.38,4.04ZM110.08,35.33l-30.45-.07,15.31,15.41,15.14-15.34ZM169.81,35.32l-30.49-.05,15.3,15.44,15.19-15.39ZM229.56,35.31l-30.49-.05,15.29,15.44,15.2-15.39ZM289.31,35.31l-30.51-.04,15.29,15.44,15.22-15.39ZM349.05,35.31l-30.53-.04,15.26,15.42,15.26-15.38ZM80.15,52.98l-15.11-15.31-15.18,15.3h30.3ZM139.9,52.98l-15.17-15.35-15.18,15.32,30.34.03ZM199.79,53.06l-15.31-15.42-15.16,15.32,30.47.11ZM259.53,53.06l-15.31-15.42-15.16,15.31,30.47.1ZM319.27,53.06l-15.3-15.42-15.16,15.31,30.46.11ZM166.21,142.77c-3.98-.9-5.63-3.18-5.62-6.13l.05-33.69c.02-15.83,13.68-27.57,29.7-25.75l-.05-12.11H53.35s-.06,13.69-.06,13.69c9.73-3.41,19.75-1.78,26.99,5.13l25.08,23.97c2.74,2.61,1.58,6.94-1.56,9.5l58.45,37.22,3.95-11.84ZM296.03,137.63c-.96-2.71-.77-4.55-.05-6.68l10.1-29.62c4.4-12.91,17.04-20.5,30.51-17.71l9.11,2.9.03-21.43h-143.31s-.04,12.11-.04,12.11c16.08-1.88,29.87,9.97,29.87,26.27v32.74c.21,3.69-2.44,6.08-5.59,6.56l22.38,61.91,46.98-67.07ZM59.46,146.57l32.98-34.57-20.67-19.58c-5.06-4.79-12.91-4.29-18.06-.27l-14.72,15.25c-5.72,6.18-5.2,15.31,1.2,20.84l19.27,18.32ZM220.31,130.75l-.02-28.03c-.28-7.87-6.58-13.87-14.46-13.71h-18.58c-7.77-.28-14.68,5.73-14.69,13.75l-.03,28.03,47.76-.04ZM362.88,119.99c2.59-7.57-1.45-15.14-8.44-17.82l-19.16-6.52c-7.72-2.38-15.22,1.74-17.79,9.29l-8.78,25.78,45.21,15.45,8.96-26.19ZM133.09,241.97l25.31-75.65-63.04-40.1-24.74,26.03,62.47,89.71Z"/>
  <path class="cls-2" d="M220.36,352.29l-19.64,10.87c-1.75.97-4.69.47-6.05-.57-1.59-1.21-2.76-3.62-2.41-5.75l3.77-22.98-15.89-16.26c-1.39-1.42-1.92-4.47-1.24-6.41.52-1.49,2.76-3.33,4.75-3.63l21.51-3.31,9.61-20.4c.95-2.01,3.03-3.56,5.08-3.73,2.19-.19,4.83,1.16,5.85,3.35l9.74,20.79,21.13,3.19c2.25.34,4.58,2.03,5.16,3.78.79,2.39.12,4.92-1.55,6.64l-15.56,16.01,3.79,23.03c.33,1.99-.87,4.52-2.32,5.63-1.62,1.25-4.55,1.53-6.54.42l-19.18-10.67ZM223.04,340.14l11.46,6.3-2.22-14.12c-.2-1.25.89-3.84,1.73-4.84l9.73-9.82-13.76-2.26c-2.12-.35-4.2-2.91-4.77-4.93l-4.91-10.25-5.45,11.59c-.8,1.72-2.77,3.41-4.68,3.71l-13.17,2.09,9.91,10.23c.94.97,1.49,3.74,1.38,4.86l-2.12,13.69,9.7-5.33c2.05-1.13,4.98-2.13,7.17-.93Z"/>
  <path class="cls-1" d="M154.67,368.44l-11.86,6.5c-1.99,1.09-4.85.89-6.46-.33-1.83-1.39-2.72-4.01-2.34-6.32l2.29-13.76-9.91-10.24c-1.52-1.57-2.02-4.5-1.18-6.51.75-1.78,3.06-3.32,5.23-3.64l12.63-1.84,6.42-13.47c.86-1.8,3.58-3.02,5.43-2.94s4.18,1.52,5.05,3.36l6.11,13.02,12.63,1.84c2.15.31,4.54,1.94,5.24,3.62,1.02,2.47.32,5.16-1.49,7.01l-9.55,9.75,2.39,14.49c.28,1.7-.79,4.22-2.04,5.33-1.15,1.02-4.34,1.94-5.81,1.14l-12.8-7.01ZM161.48,358.15c-2.1-7.65-.29-8.75,4.7-14.16-6.01.55-9.74-1.77-11.54-8.16-2.05,6.14-4.97,8.63-11.39,8.21l4.29,5.09c1.73,2.06.7,6.07.51,9.09,2.02-.93,5.58-3.19,7.34-2.49l6.09,2.42Z"/>
</svg>