<?xml version="1.0" encoding="UTF-8"?>
<svg id="Capa_1" data-name="Capa 1" xmlns="http://www.w3.org/2000/svg" xmlns:xlink="http://www.w3.org/1999/xlink" viewBox="0 0 392.21 395.42">
  <defs>
    <style>
      .cls-1 {
        fill: url(#Degradado_sin_nombre_6);
      }
    </style>
    <linearGradient id="Degradado_sin_nombre_6" data-name="Degradado sin nombre 6" x1="15.38" y1="195.44" x2="372.1" y2="195.44" gradientUnits="userSpaceOnUse">
      <stop offset="0" stop-color="#f728e2"/>
      <stop offset="1" stop-color="#a206fa"/>
    </linearGradient>
  </defs>
  <path class="cls-1" d="M15.38,351.89v-3.2c10.15-21.61,28.58-38.6,51.78-46.6,3.17-13.77,11.66-25.35,24.84-31.94l.02-80.38c-11.34,13.19-25.1,23.46-41.3,29.8-3.11,1.4-6.38.98-8.59-1.08-2.32-2.16-2.89-5.34-1.68-8.5,5.99-15.64,15.66-28.84,28.28-40.33-16.67.74-32.08-1.63-46.88-7.8-3.01-1.26-4.95-2.87-6.46-5.45v-4.18c1.29-2.74,3.24-4.34,6.3-5.63,14.94-6.33,30.76-8.6,46.94-7.88-12.54-11.56-21.9-24.41-27.92-39.65-1.19-3.01-1.26-6,.65-8.35,1.75-2.15,5.03-3.51,8.04-2.4,16.07,5.91,29.6,15.79,41.21,28.68-.88-17.1,1.73-33.12,8.35-48.33,1.43-3.29,3.94-5.24,7.33-5.13s5.59,2.24,7,5.51c6.59,15.2,8.98,31.37,8.21,47.85,11.71-12.81,24.85-22.46,40.54-28.36,3.11-1.17,6.31-.47,8.35,1.73,1.85,2,2.39,5.08,1.3,7.95-5.93,15.64-15.58,28.81-28.3,40.51,16.81-.79,33.38,1.67,48.81,8.7,3.03,1.38,4.62,4.16,4.49,7.21s-2.1,5.29-5.15,6.63c-15.18,6.66-31.18,9.17-48.28,8.37,12.77,11.52,22.56,24.91,28.49,40.75,1.14,3.04.29,6.12-1.89,8.14s-5.15,2.34-8.14,1.2c-16.3-6.26-29.88-16.58-41.62-29.7l-.03,75.67c11.22,1.8,21.24,7.21,28.7,16.24,21.37-10.9,47.1-4.39,60.61,15.71l28.23.03c4.96-13.94,15.71-24.58,29.79-29.19l-.05-110.45c-12.28,13.62-25.77,23.7-42.12,29.84-3.02,1.13-6.08.3-7.99-1.73s-2.59-4.95-1.53-7.78c5.93-15.86,15.72-29.23,28.5-40.76-16.91.8-32.75-1.68-47.78-8.15-3.5-1.51-5.79-3.79-5.67-7.55.11-3.21,2.21-5.59,5.47-6.99,15.11-6.48,31.03-9.12,47.91-8.16-12.48-11.46-22.41-24.77-28.35-40.57-1.18-3.13-.51-6.31,1.68-8.35,2.03-1.88,5.08-2.42,7.97-1.34,15.84,5.93,29.13,15.86,40.6,28.41-.93-16.89,1.65-32.81,8.14-47.92,1.4-3.26,3.72-5.41,7.03-5.5,3.06-.08,5.71,1.59,7.07,4.64,6.83,15.33,9.44,31.54,8.59,48.81,11.61-12.87,25.14-22.77,41.2-28.67,3.04-1.12,6.28.24,8.04,2.43s1.93,4.99.84,7.81c-5.97,15.47-15.45,28.46-28.09,40.16,16.53-.74,32.72,1.64,47.89,8.31,3.21,1.41,5.27,3.72,5.34,6.98s-1.84,5.8-5.01,7.19c-15.17,6.7-31.13,9.23-48.34,8.46,12.62,11.49,22.29,24.7,28.28,40.33,1.21,3.16.62,6.34-1.68,8.5s-5.43,2.37-8.61,1.11c-16.16-6.4-29.98-16.62-41.23-29.78l-.11,25.8c-.01,3.06-3.31,4.77-5.85,4.46-2.24-.28-4.54-2.35-4.54-5.18v-39.62s-3.55-6.9-3.55-6.9l-3.64,6.95v148.32s7.17-1.51,7.17-1.51l.03-83.43c0-2.86,3.15-4.59,5.19-4.57,2.27.02,5.19,1.63,5.2,4.57l.14,61.49c12.8,4.44,23.6,13.29,28.92,25.67,8.95,3.82,21.14,8.37,15.89,15.08-1.38,1.76-4.47,2.65-6.82,1.13-29.36-19.02-68.45-11.66-88.65,17.07,8.18,5.63,14.38,12.67,18.83,21.81h97.46c-2.17-8.8-6.02-16.42-11.12-23.43-1.79-2.46-1.28-5.77.87-7.34,2.42-1.77,5.59-1.38,7.46,1.07,6.39,8.41,10.6,17.68,13.19,27.94.75,2.97.75,5.99-1.11,8.55-1.29,1.78-3.72,3.68-6.88,3.68H98.45c-3.53,0-5.39-2.6-5.32-5.41.06-2.57,2.01-5.05,5.33-5.05h153.37c-13.33-20.64-39.74-26.78-60.97-15.65-13.07,6.85-29.13,5.06-40.38-4.92-19.02-16.86-43.63-24.38-69.84-19.14-21.51,4.3-42.22,18.43-53.48,39.67l47.29.07c3.09,0,4.89,3.32,4.62,5.65-.29,2.5-2.2,4.74-5.17,4.75l-48.74.05c-5.05,0-8.44-2.62-9.77-7.5ZM281.33,108.37c7.35-19.53,6.79-41.18.1-61.2-6.6,19.65-7.19,40.88-.1,61.2ZM334.57,69.03c-18.25,9.18-33.94,23.42-43.28,43.11,18.96-8.39,33.81-24.45,43.28-43.11ZM271.51,112.04c-9.37-19.45-24.47-33.74-42.8-42.59,9.17,18.75,24.43,34.57,42.8,42.59ZM106.16,140.23c7.21-20.62,6.35-41.57-.12-61.03-6.66,20-7.3,41.84.12,61.03ZM96.09,144.06c-9.51-20-25.17-33.87-43.18-43,9.46,18.65,24.41,34.86,43.18,43ZM158.58,101.64c-18.88,9.07-33.55,23.67-42.71,42.56,18.45-8.24,33.88-24,42.71-42.56ZM267.69,122.13c-19.91-7.23-41.53-6.62-61.23,0,19.91,6.63,41.16,7.25,61.23,0ZM356.4,122.07c-19.51-6.51-40.52-6.93-60.29-.44.29.46,1.75,1.72,2.37,1.89,18.97,5.23,38.77,5.28,57.92-1.45ZM334.13,174.78c-9.35-19.11-24.15-33.94-43.1-43.06,8.8,18.55,24.18,34.11,43.1,43.06ZM271.47,132.08c-19.77,9.13-33.98,25.06-43.16,43.2,18.48-9.38,34.38-23.96,43.16-43.2ZM92.19,154.19c-19.96-7.37-41.65-6.48-61.18-.05,19.83,6.65,41.07,7.33,61.18.05ZM180.95,154.16c-19.69-6.71-40.7-6.87-60.38-.46.3.45,1.74,1.66,2.36,1.83,18.95,5.27,38.8,5.33,58.02-1.37ZM53.37,206.86c19.2-9.29,33.7-24.06,43.15-42.97-18.61,8.45-34.16,24.21-43.15,42.97ZM158.98,207.06c-9.58-19-24.16-34.26-43.15-43.05,9.17,19.45,25.09,34.29,43.15,43.05ZM109.64,297.08v-121.78s-3.64-6.95-3.64-6.95l-3.54,7.02v121.7c2.57.6,5.18.8,7.18.02ZM146.3,297.65c-4.83-11.33-14.63-18.89-26.22-21.35v21.36s26.22-.01,26.22-.01ZM262.82,297.57c1.18,0,3.66-1.59,4.56-2.05v-15.74c-8.41,3.78-14.77,9.75-18.3,17.88l13.75-.08ZM309.63,289.65c-4.32-5.15-8.64-7.95-14.15-10.22l.08,9.46,14.07.76ZM92.06,297.07l-.1-14.66c-5.92,4.05-10.03,9.46-12.83,16.25l12.92-1.59ZM157.72,297.68l38.18-.05c-10.99-10.73-27.4-13.65-41.16-6.85l2.98,6.89ZM235.91,321.94c3.87-5.87,7.48-9.45,11.78-13.83h-107.26c5.9,3.92,11.23,7.47,16.39,12.01,8.05,7.07,19.41,9.03,29.04,3.96,15.79-8.3,33.62-8.83,50.05-2.14Z"/>
</svg>