<?xml version="1.0" encoding="UTF-8"?>
<svg id="Capa_1" data-name="Capa 1" xmlns="http://www.w3.org/2000/svg" xmlns:xlink="http://www.w3.org/1999/xlink" viewBox="0 0 392.21 395.42">
  <defs>
    <style>
      .cls-1 {
        fill: url(#Degradado_sin_nombre_6-3);
      }

      .cls-2 {
        fill: url(#Degradado_sin_nombre_6-2);
      }

      .cls-3 {
        fill: url(#Degradado_sin_nombre_6);
      }
    </style>
    <linearGradient id="Degradado_sin_nombre_6" data-name="Degradado sin nombre 6" x1="72.89" y1="213.61" x2="94.51" y2="213.61" gradientUnits="userSpaceOnUse">
      <stop offset="0" stop-color="#f728e2"/>
      <stop offset="1" stop-color="#a206fa"/>
    </linearGradient>
    <linearGradient id="Degradado_sin_nombre_6-2" data-name="Degradado sin nombre 6" x1="32.57" y1="193.19" x2="347.84" y2="193.19" xlink:href="#Degradado_sin_nombre_6"/>
    <linearGradient id="Degradado_sin_nombre_6-3" data-name="Degradado sin nombre 6" x1="125.77" y1="277.69" x2="368.55" y2="277.69" xlink:href="#Degradado_sin_nombre_6"/>
  </defs>
  <path class="cls-3" d="M79.43,147.77c-3.86.34-6.81,3.34-6.53,7.78l7.42,117.51c.26,4.17,3.97,6.61,7.48,6.4,3.3-.2,6.98-2.82,6.69-7.43l-7.46-117.97c-.27-4.26-4.36-6.57-7.61-6.29Z"/>
  <path class="cls-2" d="M340.89,308.54l-161.85-.02-24.74-.04c-4.25,0-7.66,2.68-7.86,7.06l-.26,10.23-72.74.05-15.96-208.98,103.95-.03,42.05.02-3.1,41.44c-9.65,4.87-18.48,10.57-26.19,18.32-17.44,16.43-27.59,38.99-27.72,63.04-.02,4.54,3.52,7.34,7.82,7.33l28.3-.06h158.29c4.53,0,7.01-3.67,6.96-7.75-.24-21.62-8.4-41.62-22.86-57.68-27.2-30.2-70.25-40.8-109.91-29.03l2.97-35.88c5.49,1.03,9.17-1.09,10.25-5.58.76-3.17-1.62-8.26-6.15-8.27l-59.95-.1h-52.57s-9.48-51.13-9.48-51.13c-.52-2.8-2.82-4.6-5.4-5.44l-51.89-20.05c-4.09-1.58-8.14-.02-9.72,3.73-1.49,3.53.06,7.83,4.09,9.41l49.67,19.2,8.15,44.28h-54.52c-4.85-.39-8.47,3.59-7.89,7.88.6,4.47,4.53,7.28,10.5,6.11l16.64,216.93c.29,3.84,3.36,6.5,6.94,6.5l81.68.12c4.94,12.25,15.87,20.7,29.08,20.72l137.52.2c17.74.03,32.72-12.96,32.79-30.63l.06-14.32c.02-3.92-2.55-7.55-6.94-7.56ZM307.35,184.02c14.4,12.56,23.79,29.38,25.87,48.66h-150.6s-21.54-.09-21.54-.09c1.76-14.53,7.1-27.49,16.23-38.59,31.82-38.69,92.42-42.78,130.04-9.97ZM315.79,346.72l-138.25-.08c-8.46,0-15.12-6.7-16.51-14.44l-.19-9.41h18.22s154.33-.04,154.33-.04l.13,7.71c-.76,9.26-8.13,16.27-17.73,16.26Z"/>
  <path class="cls-1" d="M350.08,256.16l-182.72-.13-21.26-.02c-12.92-.02-20.33,9.59-20.34,21.65,0,12.12,7.39,21.74,20.33,21.72l23.12-.04,180.02-.05c12.55,0,19.36-10.01,19.31-21.68-.04-10.82-6.34-21.44-18.47-21.44ZM353.95,285.2l-184.54-.03h-29.07s0-15.01,0-15.01h26.51s187.1.04,187.1.04v15.01Z"/>
</svg>